<mxfile host="app.diagrams.net" agent="Mozilla/5.0 (Windows NT 10.0; Win64; x64) AppleWebKit/537.36 (KHTML, like Gecko) Chrome/129.0.0.0 Safari/537.36" version="28.2.3">
  <diagram name="Page-1" id="ZU5ou_c260VMI8BkDugq">
    <mxGraphModel dx="1042" dy="1670" grid="1" gridSize="10" guides="1" tooltips="1" connect="1" arrows="1" fold="1" page="1" pageScale="1" pageWidth="850" pageHeight="1100" math="0" shadow="0">
      <root>
        <mxCell id="0" />
        <mxCell id="1" parent="0" />
        <mxCell id="D5_to-sRCKfcogDpb_UM-4" style="edgeStyle=orthogonalEdgeStyle;rounded=0;orthogonalLoop=1;jettySize=auto;html=1;" edge="1" parent="1" source="D5_to-sRCKfcogDpb_UM-2" target="D5_to-sRCKfcogDpb_UM-5">
          <mxGeometry relative="1" as="geometry">
            <mxPoint x="370" y="-320" as="targetPoint" />
          </mxGeometry>
        </mxCell>
        <mxCell id="D5_to-sRCKfcogDpb_UM-2" value="start" style="ellipse;whiteSpace=wrap;html=1;" vertex="1" parent="1">
          <mxGeometry x="250" y="-1060" width="160" height="130" as="geometry" />
        </mxCell>
        <mxCell id="D5_to-sRCKfcogDpb_UM-6" style="edgeStyle=orthogonalEdgeStyle;rounded=0;orthogonalLoop=1;jettySize=auto;html=1;" edge="1" parent="1" source="D5_to-sRCKfcogDpb_UM-5" target="D5_to-sRCKfcogDpb_UM-7">
          <mxGeometry relative="1" as="geometry">
            <mxPoint x="370" y="-110" as="targetPoint" />
          </mxGeometry>
        </mxCell>
        <mxCell id="D5_to-sRCKfcogDpb_UM-9" style="edgeStyle=orthogonalEdgeStyle;rounded=0;orthogonalLoop=1;jettySize=auto;html=1;" edge="1" parent="1" source="D5_to-sRCKfcogDpb_UM-5">
          <mxGeometry relative="1" as="geometry">
            <mxPoint x="600" y="-795" as="targetPoint" />
          </mxGeometry>
        </mxCell>
        <mxCell id="D5_to-sRCKfcogDpb_UM-5" value="tên, mail, mk" style="shape=parallelogram;perimeter=parallelogramPerimeter;whiteSpace=wrap;html=1;fixedSize=1;" vertex="1" parent="1">
          <mxGeometry x="245" y="-850" width="170" height="110" as="geometry" />
        </mxCell>
        <mxCell id="D5_to-sRCKfcogDpb_UM-11" style="edgeStyle=orthogonalEdgeStyle;rounded=0;orthogonalLoop=1;jettySize=auto;html=1;entryX=0;entryY=0.5;entryDx=0;entryDy=0;" edge="1" parent="1" source="D5_to-sRCKfcogDpb_UM-7" target="D5_to-sRCKfcogDpb_UM-10">
          <mxGeometry relative="1" as="geometry" />
        </mxCell>
        <mxCell id="D5_to-sRCKfcogDpb_UM-15" style="edgeStyle=orthogonalEdgeStyle;rounded=0;orthogonalLoop=1;jettySize=auto;html=1;entryX=0.5;entryY=0;entryDx=0;entryDy=0;" edge="1" parent="1" source="D5_to-sRCKfcogDpb_UM-7" target="D5_to-sRCKfcogDpb_UM-14">
          <mxGeometry relative="1" as="geometry" />
        </mxCell>
        <mxCell id="D5_to-sRCKfcogDpb_UM-7" value="check thông tin" style="rhombus;whiteSpace=wrap;html=1;" vertex="1" parent="1">
          <mxGeometry x="270" y="-660" width="120" height="120" as="geometry" />
        </mxCell>
        <mxCell id="D5_to-sRCKfcogDpb_UM-13" style="edgeStyle=orthogonalEdgeStyle;rounded=0;orthogonalLoop=1;jettySize=auto;html=1;" edge="1" parent="1" source="D5_to-sRCKfcogDpb_UM-10">
          <mxGeometry relative="1" as="geometry">
            <mxPoint x="600" y="-800" as="targetPoint" />
          </mxGeometry>
        </mxCell>
        <mxCell id="D5_to-sRCKfcogDpb_UM-10" value="error" style="rounded=0;whiteSpace=wrap;html=1;" vertex="1" parent="1">
          <mxGeometry x="530" y="-640" width="140" height="80" as="geometry" />
        </mxCell>
        <mxCell id="D5_to-sRCKfcogDpb_UM-17" style="edgeStyle=orthogonalEdgeStyle;rounded=0;orthogonalLoop=1;jettySize=auto;html=1;" edge="1" parent="1" source="D5_to-sRCKfcogDpb_UM-14" target="D5_to-sRCKfcogDpb_UM-16">
          <mxGeometry relative="1" as="geometry" />
        </mxCell>
        <mxCell id="D5_to-sRCKfcogDpb_UM-14" value="đăng ký tài khoản" style="rounded=0;whiteSpace=wrap;html=1;" vertex="1" parent="1">
          <mxGeometry x="250" y="-460" width="160" height="100" as="geometry" />
        </mxCell>
        <mxCell id="D5_to-sRCKfcogDpb_UM-19" style="edgeStyle=orthogonalEdgeStyle;rounded=0;orthogonalLoop=1;jettySize=auto;html=1;" edge="1" parent="1" source="D5_to-sRCKfcogDpb_UM-16" target="D5_to-sRCKfcogDpb_UM-18">
          <mxGeometry relative="1" as="geometry" />
        </mxCell>
        <mxCell id="D5_to-sRCKfcogDpb_UM-16" value="đăng ký thành công" style="shape=parallelogram;perimeter=parallelogramPerimeter;whiteSpace=wrap;html=1;fixedSize=1;" vertex="1" parent="1">
          <mxGeometry x="250" y="-270" width="160" height="90" as="geometry" />
        </mxCell>
        <mxCell id="D5_to-sRCKfcogDpb_UM-18" value="" style="ellipse;whiteSpace=wrap;html=1;" vertex="1" parent="1">
          <mxGeometry x="245" y="-80" width="170" height="100" as="geometry" />
        </mxCell>
      </root>
    </mxGraphModel>
  </diagram>
</mxfile>
